# xmcd CD database file
#
# Track frame offsets:
#	182
#	18670
#	33310
#	39995
#	58640
#	68442
#	84747
#	108752
#	113087
#	130010
#	163410
#	181057
#	194010
#	197890
#	202992
#	212652
#	216577
#	225950
#	252992
#	257360
#	276482
#	295117
#	310600
#	317912
#
# Disc length: 4700 seconds
#
# Revision: 2
# Processed by: cddbd v1.5.2PL0 Copyright (c) Steve Scherf et al.
# Submitted via: CDex 1.76
#
DISCID=5b125a18
DTITLE=Jelly Roll Morton - Library of Congress Recordings CD 1
DYEAR=1938
DGENRE=Jazz
TTITLE0=The Original Quadrille
TTITLE1=Tiger Rag
TTITLE2=Panama
TTITLE3=Mr. Jelly Lord
TTITLE4=The Miserere
TTITLE5=Hyena Stomp
TTITLE6=The Animal Ball (in 2 parts)
TTITLE7=Demonstration of Scat
TTITLE8=See See Rider
TTITLE9=New Orleans Funeral (extract)
TTITLE10=Discourse On Jazz  (extracts)
TTITLE11=Kansas City Stomp, Parts 1 and 2
TTITLE12=Demonstration of Breaks
TTITLE13=Darktown Strutters Ball
TTITLE14=Example of Slower Type of Jazz Music
TTITLE15=Randall's Rag
TTITLE16=Maple Leaf Rag (St. Louis) (in 2 parts)
TTITLE17=Maple Leaf Rag (New Orleans)
TTITLE18=King Porter Stomp - You Can Have It
TTITLE19=Mama 'Nita
TTITLE20=Spanish Swat
TTITLE21=New Orleans Blues
TTITLE22=La Paloma
TTITLE23=Creepy Feeling, Parts 1 and 2
EXTD=YEAR: 1938
EXTT0=
EXTT1=
EXTT2=
EXTT3=
EXTT4=
EXTT5=
EXTT6=
EXTT7=
EXTT8=
EXTT9=
EXTT10=
EXTT11=
EXTT12=
EXTT13=
EXTT14=
EXTT15=
EXTT16=
EXTT17=
EXTT18=
EXTT19=
EXTT20=
EXTT21=
EXTT22=
EXTT23=
PLAYORDER=
